#!OML:ASF E:/inclinewalkrobotboard/Project1/Captureday1/Session1/subject1.ASF
:FULLY-SPECIFIED
:DEGREES
151
root 0 0 0 -0.5091459815925251 -3.0168903694449862 -0.19492905013164918
lowerback 11.216271215014288 0.635311219971911 0.3995990233496136
upperback -1.940563790342162 0.9283500562236597 0.49739512623681187
thorax -8.37348635049829 0.4321793826605397 0.10969341062118504
lowerneck -11.416643182044078 -0.6320015891136643 1.347321351800432
upperneck 18.85990740025566 -0.2537132034315346 -3.898316602705983
head 7.824044500942636 -0.31591752696895536 -1.5695280436844508
rclavicle -5.483286368362472E-16 -6.197634345071897E-16
rhumerus -0.5272130580186083 0.9079914320028237 -60.21375268435446
rradius 53.33725023833415
rwrist 17.451831160668114
rhand -27.24106382573392 -23.429736370242495
rfingers 7.125019999999925
rthumb -0.8344735429148864 -53.566498559481076
lclavicle -4.901313237804225E-16 -6.929030323390244E-16
lhumerus -1.299496945988773 -6.923886890967493 60.49099696019557
lradius 52.63414191078129
lwrist -11.13002966009244
lhand -37.26842447319837 -31.211786320933527
lfingers 7.12501999999992
lthumb -10.371084437214472 -1.658167121460135
rfemur -21.385553116239315 -0.34279461490956287 19.542728806656335
rtibia 50.61739657382642
rfoot -22.773462866670126 -13.855418652618559
rtoes -12.231401388890664
lfemur -23.128509538443026 1.5474381704298223 -18.142011703146732
ltibia 50.12501075242447
lfoot -25.957014806903228 -3.653180827847354
ltoes -16.719999549921127
152
root 0 0 0 -0.5121343729953348 -3.015953965379561 -0.19788908306138953
lowerback 11.21515831793445 0.6348347692933185 0.40022581236378835
upperback -1.9367765910512342 0.9279381101172923 0.4991066282012443
thorax -8.368667315819401 0.4320404780329743 0.11120802517371942
lowerneck -11.42470829076362 -0.6354030892884762 1.3423386870018208
upperneck 18.860457367712144 -0.2587831170616397 -3.891740537874722
head 7.825538574069712 -0.3181317674772338 -1.5670392332587992
rclavicle -5.4860592638300175E-16 -6.203934847069088E-16
rhumerus -0.5194188608207604 0.913416236878156 -60.20815190558608
rradius 53.34497373028903
rwrist 17.456056833744185
rhand -27.244097917834967 -23.44402987110245
rfingers 7.125019999999925
rthumb -0.8375934847216842 -53.58154182751135
lclavicle -4.900392238918187E-16 -6.937201213195686E-16
lhumerus -1.2822325117683384 -6.928172241484024 60.47883199095858
lradius 52.64974304547352
lwrist -11.139380754417306
lhand -37.274894635108424 -31.24186365564674
lfingers 7.12501999999992
lthumb -10.376904872822337 -1.6905299652922494
rfemur -21.37953840778374 -0.33898437711500096 19.547724552676602
rtibia 50.608926296959616
rfoot -22.762254391745238 -13.849626431857432
rtoes -12.219151251844668
lfemur -23.120663665433916 1.5455755607735735 -18.143032485297688
ltibia 50.11584613961102
lfoot -25.945763830776468 -3.65295140372281
ltoes -16.713364178434354
153
root 0 0 0 -0.5101811847968439 -3.0165663052637095 -0.196002475823444
lowerback 11.215869693964466 0.6351435661630518 0.3998336622799431
upperback -1.9392194354483299 0.9282290937919059 0.4980159345811749
thorax -8.371797953487299 0.4321327827165399 0.11024340450744946
lowerneck -11.419525506813741 -0.6331962180613003 1.3455719530483414
upperneck 18.860132824086083 -0.2555351271573476 -3.895979163787553
head 7.824597759281259 -0.3167172075915802 -1.568656400933796
rclavicle -5.482992797473396E-16 -6.199521537329993E-16
rhumerus -0.5178681577146058 0.9141639097196794 -60.208103999178824
rradius 53.34583390507649
rwrist 17.45620520875557
rhand -27.244226893956032 -23.444721967928253
rfingers 7.125019999999925
rthumb -0.8374469073361563 -53.58130956234892
lclavicle -4.899209095558252E-16 -6.930175459623718E-16
lhumerus -1.2856858718303368 -6.927220516546034 60.481270881766285
lradius 52.64485849629301
lwrist -11.137232201169912
lhand -37.27306310713266 -31.235993403152165
lfingers 7.12501999999992
lthumb -10.375493752743754 -1.6824418021550045
rfemur -21.380237028904176 -0.33946403916858703 19.547105228475335
rtibia 50.61001509137268
rfoot -22.763664444338573 -13.850681210085249
rtoes -12.221135829626814
lfemur -23.130878190624617 1.5480389102719527 -18.141733229616186
ltibia 50.12829630162538
lfoot -25.960425075698303 -3.653429013147977
ltoes -16.722289083077712
154
root 0 0 0 -0.5095033110497794 -3.016812208513005 -0.1953514162672536
lowerback 11.216134456425008 0.635272316260508 0.39972187396228076
upperback -1.94009704522214 0.9283356855315775 0.49761064247385345
thorax -8.372910587694196 0.43216734131528767 0.10986081145003279
lowerneck -11.417646937124546 -0.6324323727693427 1.3467148048297488
upperneck 18.859993215223223 -0.25435614534708617 -3.8975044459037482
head 7.824241285354645 -0.31619650183126513 -1.569222253690416
rclavicle -5.483534197625334E-16 -6.198540012507185E-16
rhumerus -0.5194993993230366 0.9130700993306178 -60.20913001801018
rradius 53.34428829061461
rwrist 17.455384402374552
rhand -27.243642823034023 -23.442063044010993
rfingers 7.125019999999925
rthumb -0.8368833650505962 -53.57872870117795
lclavicle -4.900316018948031E-16 -6.929340179263084E-16
lhumerus -1.293447640965665 -6.9253232988350595 60.48671906052125
lradius 52.638786089627914
lwrist -11.133194728856827
lhand -37.27044561406688 -31.222336289397752
lfingers 7.12501999999992
lthumb -10.373013834655936 -1.6688300206760154
rfemur -21.38170294240564 -0.34046481255355543 19.545858866163414
rtibia 50.61233908118156
rfoot -22.766574933749432 -13.85206154395958
rtoes -12.224109908117995
lfemur -23.133231673624223 1.5485889373428112 -18.14150965326182
ltibia 50.13078640888651
lfoot -25.963612823886855 -3.653460581972499
ltoes -16.72432439528114
